<?xml version="1.0" standalone="no"?>
<!DOCTYPE svg PUBLIC "-//W3C//DTD SVG 20010904//EN"
 "http://www.w3.org/TR/2001/REC-SVG-20010904/DTD/svg10.dtd">
<svg version="1.0" xmlns="http://www.w3.org/2000/svg"
 width="1080.000000pt" height="311.000000pt" viewBox="0 0 1080.000000 311.000000"
 preserveAspectRatio="xMidYMid meet">

<g transform="translate(0.000000,311.000000) scale(0.100000,-0.100000)"
fill="#000000" stroke="none">
<path d="M1877 1936 c-85 -31 -107 -72 -107 -206 0 -134 -13 -165 -74 -181
-43 -11 -46 -13 -46 -45 0 -31 3 -34 29 -34 17 0 42 -10 58 -24 27 -24 28 -27
33 -153 4 -102 9 -135 23 -157 22 -33 89 -65 135 -66 30 0 32 2 32 35 0 29 -4
35 -20 35 -33 0 -77 27 -84 52 -3 13 -6 68 -6 123 0 114 -18 158 -70 178 -32
12 -40 27 -15 27 8 0 29 13 47 29 l33 29 5 125 c6 140 15 161 76 173 31 6 34
10 34 40 0 29 -4 34 -22 34 -13 -1 -40 -7 -61 -14z"/>
<path d="M8888 1944 c-15 -14 -8 -55 10 -60 9 -3 31 -12 49 -19 41 -18 53 -59
53 -185 0 -109 10 -133 68 -157 l35 -15 -40 -18 c-52 -23 -61 -49 -66 -188 -4
-127 -14 -148 -78 -161 -30 -6 -34 -11 -37 -40 l-3 -34 53 6 c56 7 89 26 122
71 18 23 21 45 24 139 1 62 5 122 7 134 6 26 52 53 90 53 22 0 25 4 25 34 0
31 -3 34 -44 45 -65 16 -70 27 -76 170 -6 139 -20 175 -80 206 -34 18 -102 29
-112 19z"/>
<path d="M4086 1818 c-36 -56 -196 -501 -196 -547 0 -23 25 -34 50 -21 16 9
60 104 60 131 0 6 46 9 121 7 l121 -3 25 -63 c14 -34 33 -67 43 -72 22 -12 50
-3 50 15 0 44 -138 433 -190 534 -24 48 -60 56 -84 19z m88 -234 c20 -61 36
-114 36 -117 0 -4 -38 -7 -85 -7 -55 0 -85 4 -85 11 0 20 62 214 73 227 15 19
22 6 61 -114z"/>
<path d="M5496 1793 c-33 -68 -140 -353 -166 -446 -17 -61 -19 -81 -9 -93 27
-33 56 -7 87 76 l20 55 118 3 119 3 23 -66 c13 -36 32 -70 42 -75 26 -14 50
-2 50 25 0 44 -160 487 -196 543 -9 13 -25 22 -39 22 -19 0 -30 -10 -49 -47z
m99 -203 c19 -57 35 -110 35 -117 0 -10 -22 -13 -85 -13 -63 0 -85 3 -85 13 0
15 65 211 75 228 12 19 24 -3 60 -111z"/>
<path d="M6595 1827 c-55 -22 -75 -37 -92 -70 -15 -28 -17 -60 -15 -257 2
-124 5 -233 8 -243 4 -13 14 -17 32 -15 l27 3 3 101 3 101 93 6 c170 10 228
56 234 184 5 87 -19 139 -79 173 -48 26 -168 36 -214 17z m160 -71 c42 -18 57
-46 58 -106 1 -93 -53 -133 -176 -128 l-72 3 -3 65 c-6 134 21 180 108 180 28
0 66 -6 85 -14z"/>
<path d="M7556 1826 c-22 -8 -53 -29 -70 -46 l-31 -30 0 -253 0 -252 23 -3
c43 -6 52 13 52 114 l0 94 58 0 57 -1 68 -100 c72 -105 104 -132 132 -109 23
19 19 32 -40 114 -80 112 -80 112 -46 126 124 51 130 262 10 329 -51 29 -159
37 -213 17z m135 -66 c58 -16 84 -52 84 -116 0 -47 -4 -57 -33 -86 -31 -32
-36 -33 -122 -36 l-90 -4 0 97 c0 53 5 105 11 116 19 36 80 48 150 29z"/>
<path d="M2110 1817 c-57 -20 -62 -41 -62 -276 1 -231 9 -273 57 -291 15 -6
91 -10 169 -10 115 0 146 3 156 15 29 35 7 42 -133 47 -93 2 -140 8 -151 17
-12 10 -16 32 -16 97 l0 84 74 0 c107 0 136 8 136 35 0 30 -16 35 -121 35
l-89 0 0 83 c0 51 5 88 12 95 8 8 53 12 138 12 69 0 131 4 138 9 21 13 10 44
-18 52 -42 12 -253 9 -290 -4z"/>
<path d="M2530 1805 c-13 -33 -13 -505 -1 -538 13 -32 49 -39 156 -26 97 11
148 31 143 57 -4 18 -50 21 -171 12 l-58 -5 0 195 c0 107 -3 224 -7 260 -6 57
-10 65 -29 68 -17 3 -26 -3 -33 -23z"/>
<path d="M2970 1817 c-55 -19 -62 -54 -58 -297 4 -220 9 -248 55 -269 28 -13
301 -15 321 -2 8 5 12 17 10 27 -3 17 -17 20 -142 25 -167 6 -166 6 -166 121
l0 78 74 0 c91 0 136 9 143 27 11 27 -18 38 -115 43 l-97 5 -3 78 c-2 50 1 84
9 93 9 11 42 14 138 14 91 0 132 4 146 14 27 19 12 42 -32 49 -63 11 -246 7
-283 -6z"/>
<path d="M3400 1820 c-13 -8 -15 -48 -13 -275 1 -147 5 -275 8 -286 4 -12 15
-19 31 -19 13 0 25 1 26 3 1 1 4 97 7 212 l6 210 38 -55 c21 -30 84 -125 140
-210 79 -119 108 -156 126 -158 13 -2 28 2 32 10 5 7 9 135 9 284 0 236 -2
273 -16 285 -11 9 -20 10 -32 2 -15 -9 -17 -36 -20 -207 -1 -108 -6 -196 -11
-196 -4 0 -38 50 -75 110 -107 175 -206 301 -236 300 -3 0 -12 -5 -20 -10z"/>
<path d="M4683 1815 c-64 -28 -68 -43 -68 -297 0 -267 -2 -262 106 -280 243
-40 382 163 308 447 -15 55 -82 118 -142 133 -62 16 -165 14 -204 -3z m194
-74 c52 -24 82 -77 90 -164 8 -87 -11 -170 -50 -214 -38 -43 -66 -54 -135 -54
-91 0 -92 2 -92 220 0 102 4 191 8 197 25 37 113 45 179 15z"/>
<path d="M5170 1820 c-13 -8 -15 -52 -18 -274 -3 -282 1 -310 41 -304 15 2 24
12 28 33 9 41 9 494 0 525 -8 27 -28 35 -51 20z"/>
<path d="M5945 1822 c-90 -3 -105 -9 -105 -36 0 -31 20 -36 154 -36 97 0 107
-2 102 -17 -4 -9 -58 -100 -121 -202 -120 -195 -150 -254 -141 -277 4 -11 38
-14 164 -14 194 0 224 5 220 34 -3 18 -12 22 -63 27 -33 4 -98 7 -144 8 -66 1
-82 4 -78 15 3 8 51 85 108 172 108 168 169 277 169 300 0 7 -10 16 -22 18
-33 7 -173 12 -243 8z"/>
<path d="M7044 1823 c-12 -2 -32 -15 -45 -29 -22 -24 -24 -33 -27 -195 -6
-230 2 -294 38 -331 l28 -28 145 0 c80 0 152 3 161 6 9 3 16 16 16 29 0 22 -2
23 -140 27 -95 2 -143 7 -152 16 -8 8 -14 46 -16 97 l-4 83 101 4 c107 3 135
14 115 46 -9 14 -31 18 -110 22 l-99 5 -3 80 c-4 104 -3 105 153 105 86 0 127
4 140 14 25 18 13 42 -25 50 -35 6 -241 6 -276 -1z"/>
<path d="M8014 1823 c-12 -2 -32 -15 -45 -29 -22 -24 -24 -33 -27 -195 -6
-230 2 -294 38 -331 l28 -28 145 0 c80 0 152 3 161 6 9 3 16 16 16 29 0 22 -2
23 -140 27 -95 2 -143 7 -152 16 -8 8 -14 46 -16 97 l-4 83 101 4 c107 3 135
14 115 46 -9 14 -31 18 -110 22 l-99 5 -3 80 c-4 104 -3 105 153 105 86 0 127
4 140 14 25 18 13 42 -25 50 -35 6 -241 6 -276 -1z"/>
<path d="M8505 1822 c-90 -3 -105 -9 -105 -36 0 -31 20 -36 154 -36 97 0 107
-2 102 -17 -4 -9 -58 -100 -121 -202 -120 -195 -150 -254 -141 -277 4 -11 38
-14 164 -14 194 0 224 5 220 34 -3 18 -12 22 -63 27 -33 4 -98 7 -144 8 -66 1
-82 4 -78 15 3 8 51 85 108 172 108 168 169 277 169 300 0 7 -10 16 -22 18
-33 7 -173 12 -243 8z"/>
</g>
</svg>
